<svg xmlns="http://www.w3.org/2000/svg" viewBox="0 0 400 300" role="img" aria-label="Ilustración mapa">
  <rect width="400" height="300" fill="#f1ece8"/>
  <rect x="1" y="1" width="398" height="298" fill="none" stroke="#3d3532" stroke-width="2"/>
  <path fill="#e1332c" opacity="0.85" d="M200 52c-38 0-68 30-68 68 0 52 68 118 68 118s68-66 68-118c0-38-30-68-68-68zm0 92c-14 0-25-11-25-25s11-25 25-25 25 11 25 25-11 25-25 25z"/>
  <path fill="#5a4f4b" opacity="0.35" d="M60 200h280M80 160h240M100 120h200" stroke="#3d3532" stroke-width="1.5" fill="none"/>
  <text x="200" y="255" text-anchor="middle" fill="#3d3532" font-family="system-ui,sans-serif" font-size="14" font-weight="600">Hydraulic Sistem</text>
</svg>
